Coordinates
version=1
nRows=24
nColumns=24
inDegrees=yes

Units are S.I. units (second, meters, Newtons, ...)
Angles are in degrees.

endheader
time	pelvis_tilt	pelvis_list	pelvis_rotation	pelvis_tx	pelvis_ty	pelvis_tz	hip_flexion_r	hip_adduction_r	hip_rotation_r	knee_angle_r	ankle_angle_r	subtalar_angle_r	mtp_angle_r	hip_flexion_l	hip_adduction_l	hip_rotation_l	knee_angle_l	ankle_angle_l	subtalar_angle_l	mtp_angle_l	lumbar_extension	lumbar_bending	lumbar_rotation
      2.82000000	     23.63638122	     -3.59127712	     -1.09746151	     -0.12460650	      1.04053720	      0.00363087	     -4.74373387	     -1.20001149	    -11.86563082	    -28.87524642	      6.87248349	    -10.29502068	     31.34320028	    -28.61675321	     -1.33677186	     -8.54519210	     -8.44807245	     14.39732057	      0.64504198	      2.14117149	    -39.52502624	      0.51310773	      1.15880431
      2.82500000	     23.59008758	     -3.57089901	     -1.06584636	     -0.11998434	      1.04012327	      0.00397677	     -4.73134829	     -1.03330952	    -11.82485343	    -27.28220612	      6.84141481	    -10.15132228	     31.08353444	    -28.99561693	     -1.33613086	     -8.55557041	     -8.18880033	     14.45726006	      0.76914373	      2.29116131	    -39.51186019	      0.49246255	      1.13460048
      2.83000000	     23.52315385	     -3.55872936	     -1.06334589	     -0.11534237	      1.03963575	      0.00441222	     -4.70412866	     -0.85255774	    -11.72898850	    -25.69500169	      6.93605360	     -9.89873602	     29.61142876	    -29.35582859	     -1.33718853	     -8.64092944	     -7.92891799	     14.46102443	      0.91591328	      3.27635868	    -39.47570247	      0.45858646	      1.13801153
      2.83500000	     23.44854336	     -3.50323226	     -1.02696808	     -0.11073138	      1.03913172	      0.00473937	     -4.68740410	     -0.73239933	    -11.72171912	    -24.07912733	      6.78228634	     -9.67730102	     29.57615222	    -29.70414297	     -1.30019550	     -8.57493746	     -7.65651171	     14.50043504	      0.91982807	      3.31987478	    -39.43753581	      0.41498702	      1.08730767
      2.84000000	     23.44017320	     -3.45872554	     -0.97877553	     -0.10609033	      1.03867882	      0.00511514	     -4.78240690	     -0.58726613	    -11.69100892	    -22.41284198	      6.65725880	     -9.46913763	     29.53092376	    -30.12158343	     -1.28821673	     -8.56415016	     -7.40018998	     14.56135509	      1.05942078	      3.40450236	    -39.46532035	      0.38050615	      1.05006107
      2.84500000	     23.39437730	     -3.40508275	     -0.95406927	     -0.10143450	      1.03814421	      0.00550432	     -4.83569697	     -0.45853550	    -11.64539441	    -20.76803669	      6.49589082	     -9.23782603	     29.48600606	    -30.50070639	     -1.25526959	     -8.56836391	     -7.14227330	     14.62334946	      1.17783005	      3.49735775	    -39.45393581	      0.33154819	      1.01606484
      2.85000000	     23.33495352	     -3.34044589	     -0.92779934	     -0.09676356	      1.03757216	      0.00591042	     -4.88545198	     -0.34228033	    -11.61100363	    -19.12900173	      6.29504543	     -8.98960777	     29.44305118	    -30.86323090	     -1.21528323	     -8.56374878	     -6.88655794	     14.67985858	      1.28700079	      3.59552742	    -39.42868563	      0.27450497	      0.97549336
      2.85500000	     23.30515139	     -3.26547571	     -0.89072043	     -0.09207358	      1.03700740	      0.00631910	     -4.98648576	     -0.23629325	    -11.59035111	    -17.48792445	      6.08575938	     -8.72227576	     29.40194170	    -31.25138477	     -1.17319260	     -8.55699775	     -6.64438765	     14.72434084	      1.42291280	      3.71971518	    -39.43270155	      0.21317866	      0.93651864
      2.86000000	     23.24340651	     -3.18781099	     -0.86368012	     -0.08734654	      1.03638296	      0.00673173	     -5.05124263	     -0.13907650	    -11.58330379	    -15.88489603	      5.81488275	     -8.43714020	     29.36636196	    -31.61244323	     -1.12220562	     -8.54706738	     -6.39136072	     14.77454938	      1.52337743	      3.83443025	    -39.40056378	      0.15081450	      0.88409153
      2.86500000	     23.22091484	     -3.09626438	     -0.81405649	     -0.08261663	      1.03578117	      0.00715105	     -5.17651631	     -0.05280824	    -11.59811889	    -14.29318957	      5.55986693	     -8.13540134	     29.33782598	    -31.99855871	     -1.07549497	     -8.52501782	     -6.16927402	     14.80756143	      1.66096906	      3.97967890	    -39.41083976	      0.08439626	      0.83970035
      2.87000000	     23.18190050	     -3.00520320	     -0.76935439	     -0.07783224	      1.03513409	      0.00756254	     -5.27988594	      0.02722996	    -11.64023103	    -12.75899447	      5.26267306	     -7.81126736	     29.31458517	    -32.37739048	     -1.02462760	     -8.50637270	     -5.93158932	     14.84679895	      1.78031154	      4.13322530	    -39.39982066	      0.02218956	      0.77808953
      2.87500000	     23.15315232	     -2.88676948	     -0.72811330	     -0.07301750	      1.03447838	      0.00799620	     -5.38779737	      0.07098425	    -11.72587751	    -11.29439449	      5.00246491	     -7.38599357	     29.32897421	    -32.75475921	     -0.95321923	     -8.53164087	     -5.71759377	     14.81644588	      1.98628459	      4.71706281	    -39.39574081	     -0.06679908	      0.70551200
      2.88000000	     23.10658147	     -2.78851643	     -0.66964929	     -0.06821060	      1.03378569	      0.00841953	     -5.47795910	      0.14506600	    -11.78540827	     -9.87573993	      4.65906796	     -7.11390810	     29.30851543	    -33.10739163	     -0.90665765	     -8.45168152	     -5.51595886	     14.86708834	      2.01615582	      4.86139060	    -39.37560572	     -0.12476734	      0.65226321
      2.88500000	     23.07054835	     -2.68084966	     -0.60806162	     -0.06334050	      1.03309583	      0.00884688	     -5.57061888	      0.20166604	    -11.90588736	     -8.54562136	      4.34999623	     -6.73470959	     29.30692288	    -33.46874563	     -0.85811342	     -8.42355582	     -5.32391390	     14.89735171	      2.15007709	      5.02468050	    -39.36124273	     -0.18681564	      0.58101315
      2.89000000	     23.04426306	     -2.57546729	     -0.54496657	     -0.05842871	      1.03240144	      0.00927394	     -5.66090354	      0.25656493	    -12.05696771	     -7.30808741	      4.04004271	     -6.34915030	     29.30878764	    -33.84272771	     -0.81333248	     -8.40522716	     -5.13213995	     14.92922980	      2.28896916	      5.19593930	    -39.35293265	     -0.24265237	      0.50060449
      2.89500000	     23.02467440	     -2.47224050	     -0.46909176	     -0.05349566	      1.03170559	      0.00971259	     -5.74809517	      0.31482867	    -12.23140952	     -6.16290289	      3.77060497	     -5.95555542	     29.31954164	    -34.20858486	     -0.78314604	     -8.38346830	     -4.97147384	     14.96009870	      2.44262465	      5.38696684	    -39.35071500	     -0.28965528	      0.42896358
      2.90000000	     23.01780976	     -2.36878686	     -0.39096381	     -0.04854379	      1.03102162	      0.01015550	     -5.83216072	      0.36999730	    -12.42518418	     -5.12289622	      3.51501782	     -5.56411153	     29.33336513	    -34.58004566	     -0.75643717	     -8.36510853	     -4.82772879	     14.98381411	      2.59995945	      5.59286557	    -39.36081963	     -0.33312191	      0.35489259
      2.90500000	     23.00019246	     -2.27027288	     -0.29784844	     -0.04356852	      1.03032669	      0.01059617	     -5.88838343	      0.42930524	    -12.63891447	     -4.19232946	      3.30362516	     -5.17664993	     29.35675749	    -34.92015602	     -0.74874398	     -8.33759331	     -4.72379446	     15.00989565	      2.76751495	      5.83416352	    -39.35780474	     -0.36234934	      0.28552870
      2.91000000	     23.01305886	     -2.18613602	     -0.20304110	     -0.03855111	      1.02965696	      0.01105089	     -5.96157582	      0.50184221	    -12.86544696	     -3.37563366	      3.11830376	     -4.81556643	     29.38235578	    -35.29464482	     -0.75695170	     -8.33210279	     -4.62269192	     15.03268476	      2.94131546	      6.10045849	    -39.38424523	     -0.37605803	      0.22187549
      2.91500000	     23.00852233	     -2.10209675	     -0.10744862	     -0.03351531	      1.02896906	      0.01150824	     -5.98720743	      0.56873914	    -13.10134156	     -2.69306972	      2.95611777	     -4.49266691	     29.40592923	    -35.64081196	     -0.76863420	     -8.32619633	     -4.53888895	     15.06468249	      3.11565092	      6.36961040	    -39.39043619	     -0.38592467	      0.14085180
      2.92000000	     22.97128667	     -2.02182513	     -0.00788862	     -0.02846311	      1.02825349	      0.01194520	     -5.94974284	      0.62914471	    -13.35972512	     -2.14905460	      2.86952746	     -4.09162079	     29.58429662	    -35.92571772	     -0.78786564	     -8.27932108	     -4.49421737	     14.85638791	      3.11984393	      8.94728386	    -39.36095764	     -0.38343373	      0.08992137
      2.92500000	     23.00509599	     -1.95865202	      0.10305073	     -0.02334753	      1.02762892	      0.01242361	     -6.00020832	      0.71795108	    -13.54137219	     -1.67214039	      2.75260679	     -3.98078455	     29.57186608	    -36.29792700	     -0.83503034	     -8.27883587	     -4.44718022	     14.86580155	      3.30917663	      9.01473270	    -39.39950180	     -0.36287629	      0.01972708
      2.93000000	     23.02101468	     -1.90380248	      0.22309221	     -0.01822006	      1.02698091	      0.01288555	     -6.00549312	      0.80548485	    -13.77057405	     -1.32855898	      2.66410242	     -3.78444773	     29.56967934	    -36.61672756	     -0.90112630	     -8.29293653	     -4.46921109	     14.91185411	      3.52038375	      9.10528230	    -39.41867496	     -0.32558541	     -0.02941444
      2.93500000	     23.03766914	     -1.86345679	      0.35467339	     -0.01301796	      1.02633655	      0.01333213	     -5.99584619	      0.90181425	    -13.99617152	     -1.11297510	      2.67707681	     -3.61466966	     29.57244206	    -36.93668251	     -0.98951318	     -8.29567100	     -4.49571593	     14.97136056	      3.73833441	      9.23422192	    -39.43060599	     -0.26276131	     -0.09262000
